<svg id="Layer_1" enable-background="new 0 0 32 32" height="512" viewBox="0 0 32 32" width="512" xmlns="http://www.w3.org/2000/svg"><g><path d="m31.007 15.247v.003h-2.353c-.385-6.406-5.494-11.515-11.9-11.9v-2.35c0-.414-.336-.75-.75-.75s-.75.336-.75.75v2.353c-6.406.385-11.515 5.494-11.9 11.9h-2.347c-.414 0-.75.337-.749.751 0 .414.336.749.749.749h2.353c.385 6.406 5.494 11.515 11.9 11.9v2.347c0 .414.337.75.751.749.414 0 .749-.336.749-.749v-2.353c6.406-.385 11.515-5.494 11.9-11.9h2.347c.981-.004.981-1.495 0-1.5zm-6.13 1.506h2.277c-.383 5.575-4.822 10.013-10.397 10.394v-2.277c0-.414-.336-.75-.75-.75s-.75.336-.75.75v2.277c-5.579-.38-10.02-4.821-10.4-10.4h2.28c.414 0 .75-.336.75-.75s-.336-.75-.75-.75h-2.277c.38-5.579 4.821-10.02 10.4-10.4v2.283c0 .414.336.75.75.75s.75-.336.75-.75v-2.277c5.579.38 10.02 4.821 10.4 10.4h-2.283c-.981.005-.981 1.496 0 1.5z"/><path d="m16.009 14.163c-2.416.039-2.418 3.633-.002 3.674 2.413-.04 2.415-3.631.002-3.674z"/></g></svg>