<?xml version="1.0" encoding="iso-8859-1"?>
<!-- Generator: Adobe Illustrator 18.0.0, SVG Export Plug-In . SVG Version: 6.00 Build 0)  -->
<!DOCTYPE svg PUBLIC "-//W3C//DTD SVG 1.1//EN" "http://www.w3.org/Graphics/SVG/1.1/DTD/svg11.dtd">
<svg version="1.1" id="Capa_1" xmlns="http://www.w3.org/2000/svg" xmlns:xlink="http://www.w3.org/1999/xlink" x="0px" y="0px"
	 viewBox="0 0 188.111 188.111" style="enable-background:new 0 0 188.111 188.111;" xml:space="preserve">
<g>
	<path d="M122.735,55.676L53.951,82.395c-2.797,1.086-4.677,3.736-4.78,6.735c-0.103,2.999,1.592,5.771,4.309,7.045l26.172,12.286
		l12.291,26.172c1.239,2.638,3.888,4.312,6.788,4.312c0.086,0,0.172-0.001,0.258-0.004c2.999-0.103,5.647-1.983,6.734-4.78
		l26.719-68.778c1.076-2.771,0.414-5.917-1.688-8.019C128.651,55.262,125.503,54.6,122.735,55.676z M98.079,112.413l-6.001-12.778
		c-0.744-1.584-2.018-2.858-3.602-3.601l-12.773-5.996l36.59-14.213L98.079,112.413z"/>
	<path d="M94.052,0C42.192,0.001,0.001,42.194,0.001,94.055c0,51.862,42.191,94.056,94.052,94.057
		c51.864-0.001,94.058-42.194,94.058-94.056C188.111,42.193,145.916,0,94.052,0z M94.052,173.111
		c-43.589-0.001-79.052-35.465-79.052-79.057c0-43.59,35.462-79.054,79.052-79.055c43.593,0,79.058,35.464,79.058,79.056
		C173.111,137.646,137.645,173.11,94.052,173.111z"/>
</g>
<g>
</g>
<g>
</g>
<g>
</g>
<g>
</g>
<g>
</g>
<g>
</g>
<g>
</g>
<g>
</g>
<g>
</g>
<g>
</g>
<g>
</g>
<g>
</g>
<g>
</g>
<g>
</g>
<g>
</g>
</svg>
