<svg height="512" viewBox="0 0 128 128" width="512" xmlns="http://www.w3.org/2000/svg"><g><path d="m64 4.122a35.077 35.077 0 0 0 -35.077 35.078c0 24.8 35.077 72.147 35.077 72.147s35.077-44.756 35.077-72.147a35.077 35.077 0 0 0 -35.077-35.078zm0 54.5a19.42 19.42 0 1 1 19.419-19.422 19.419 19.419 0 0 1 -19.419 19.419z" fill="#ef3c49"/><path d="m64 122.617c-16.425 0-40.86-2.993-40.86-11.24 0-5.71 11.209-8.529 20.612-9.89a1.751 1.751 0 0 1 .5 3.465c-12.832 1.856-17.613 4.926-17.613 6.425 0 2.627 13.186 7.74 37.36 7.74s37.36-5.113 37.36-7.74c0-1.4-4.875-4.887-19.942-6.736a1.751 1.751 0 0 1 .426-3.475c8.6 1.056 23.016 3.785 23.016 10.211.001 8.247-24.434 11.24-40.859 11.24z" fill="#35d0ba"/></g></svg>